<?xml version="1.0" encoding="utf-8"?>
<!-- Generator: Adobe Illustrator 17.1.0, SVG Export Plug-In . SVG Version: 6.00 Build 0)  -->
<!DOCTYPE svg PUBLIC "-//W3C//DTD SVG 1.1//EN" "http://www.w3.org/Graphics/SVG/1.1/DTD/svg11.dtd">
<svg version="1.1" id="Layer_1" xmlns="http://www.w3.org/2000/svg" xmlns:xlink="http://www.w3.org/1999/xlink" x="0px" y="0px"
	 viewBox="0 0 32 32" enable-background="new 0 0 32 32" xml:space="preserve">
<g id="cart-empty">
	<path fill="#e33930" d="M31,23H7.9l-0.3-3H29c0.5,0,0.9-0.4,1-0.8l2-13c0-0.3,0-0.6-0.2-0.8C31.6,5.1,31.3,5,31,5H9
		C8.4,5,8,5.4,8,6s0.4,1,1,1h20.8l-1.7,11H7.5L6,1.9C5.9,1.4,5.5,1,5,1H1C0.4,1,0,1.4,0,2s0.4,1,1,1h3.1L6,24.1c0,0.5,0.5,0.9,1,0.9
		h4h16h4c0.6,0,1-0.4,1-1S31.6,23,31,23z"/>
	<path fill="#e33930" d="M8,28c0,1.7,1.3,3,3,3s3-1.3,3-3s-1.3-3-3-3S8,26.3,8,28z M11,27c0.6,0,1,0.4,1,1s-0.4,1-1,1s-1-0.4-1-1
		S10.4,27,11,27z"/>
	<path fill="#e33930" d="M24,28c0,1.7,1.3,3,3,3s3-1.3,3-3s-1.3-3-3-3S24,26.3,24,28z M27,27c0.6,0,1,0.4,1,1s-0.4,1-1,1s-1-0.4-1-1
		S26.4,27,27,27z"/>
</g>
</svg>
